<?xml version="1.0" standalone="no"?>
<svg xmlns="http://www.w3.org/2000/svg" width="512" height="512" viewBox="0 0 512 512"><defs><clipPath id="clip-path-dot-color"><rect x="38" y="173" width="15" height="15" transform="rotate(0,45.5,180.5)"/><rect x="38" y="188" width="15" height="15" transform="rotate(0,45.5,195.5)"/><rect x="38" y="218" width="15" height="15" transform="rotate(0,45.5,225.5)"/><rect x="38" y="233" width="15" height="15" transform="rotate(0,45.5,240.5)"/><rect x="38" y="278" width="15" height="15" transform="rotate(0,45.5,285.5)"/><rect x="38" y="308" width="15" height="15" transform="rotate(0,45.5,315.5)"/><rect x="38" y="323" width="15" height="15" transform="rotate(0,45.5,330.5)"/><rect x="53" y="218" width="15" height="15" transform="rotate(0,60.5,225.5)"/><rect x="53" y="233" width="15" height="15" transform="rotate(0,60.5,240.5)"/><rect x="53" y="263" width="15" height="15" transform="rotate(0,60.5,270.5)"/><rect x="53" y="293" width="15" height="15" transform="rotate(0,60.5,300.5)"/><rect x="53" y="338" width="15" height="15" transform="rotate(0,60.5,345.5)"/><rect x="68" y="158" width="15" height="15" transform="rotate(0,75.5,165.5)"/><rect x="68" y="233" width="15" height="15" transform="rotate(0,75.5,240.5)"/><rect x="68" y="248" width="15" height="15" transform="rotate(0,75.5,255.5)"/><rect x="68" y="293" width="15" height="15" transform="rotate(0,75.5,300.5)"/><rect x="68" y="323" width="15" height="15" transform="rotate(0,75.5,330.5)"/><rect x="68" y="338" width="15" height="15" transform="rotate(0,75.5,345.5)"/><rect x="83" y="218" width="15" height="15" transform="rotate(0,90.5,225.5)"/><rect x="83" y="248" width="15" height="15" transform="rotate(0,90.5,255.5)"/><rect x="83" y="278" width="15" height="15" transform="rotate(0,90.5,285.5)"/><rect x="83" y="308" width="15" height="15" transform="rotate(0,90.5,315.5)"/><rect x="83" y="323" width="15" height="15" transform="rotate(0,90.5,330.5)"/><rect x="98" y="158" width="15" height="15" transform="rotate(0,105.5,165.5)"/><rect x="98" y="188" width="15" height="15" transform="rotate(0,105.5,195.5)"/><rect x="98" y="203" width="15" height="15" transform="rotate(0,105.5,210.5)"/><rect x="98" y="233" width="15" height="15" transform="rotate(0,105.5,240.5)"/><rect x="98" y="248" width="15" height="15" transform="rotate(0,105.5,255.5)"/><rect x="113" y="158" width="15" height="15" transform="rotate(0,120.5,165.5)"/><rect x="113" y="203" width="15" height="15" transform="rotate(0,120.5,210.5)"/><rect x="113" y="218" width="15" height="15" transform="rotate(0,120.5,225.5)"/><rect x="113" y="308" width="15" height="15" transform="rotate(0,120.5,315.5)"/><rect x="113" y="323" width="15" height="15" transform="rotate(0,120.5,330.5)"/><rect x="113" y="338" width="15" height="15" transform="rotate(0,120.5,345.5)"/><rect x="128" y="158" width="15" height="15" transform="rotate(0,135.5,165.5)"/><rect x="128" y="188" width="15" height="15" transform="rotate(0,135.5,195.5)"/><rect x="128" y="218" width="15" height="15" transform="rotate(0,135.5,225.5)"/><rect x="128" y="248" width="15" height="15" transform="rotate(0,135.5,255.5)"/><rect x="128" y="278" width="15" height="15" transform="rotate(0,135.5,285.5)"/><rect x="128" y="308" width="15" height="15" transform="rotate(0,135.5,315.5)"/><rect x="128" y="338" width="15" height="15" transform="rotate(0,135.5,345.5)"/><rect x="143" y="173" width="15" height="15" transform="rotate(0,150.5,180.5)"/><rect x="143" y="203" width="15" height="15" transform="rotate(0,150.5,210.5)"/><rect x="143" y="293" width="15" height="15" transform="rotate(0,150.5,300.5)"/><rect x="143" y="308" width="15" height="15" transform="rotate(0,150.5,315.5)"/><rect x="143" y="323" width="15" height="15" transform="rotate(0,150.5,330.5)"/><rect x="158" y="53" width="15" height="15" transform="rotate(0,165.5,60.5)"/><rect x="158" y="98" width="15" height="15" transform="rotate(0,165.5,105.5)"/><rect x="158" y="128" width="15" height="15" transform="rotate(0,165.5,135.5)"/><rect x="158" y="158" width="15" height="15" transform="rotate(0,165.5,165.5)"/><rect x="158" y="173" width="15" height="15" transform="rotate(0,165.5,180.5)"/><rect x="158" y="203" width="15" height="15" transform="rotate(0,165.5,210.5)"/><rect x="158" y="248" width="15" height="15" transform="rotate(0,165.5,255.5)"/><rect x="158" y="263" width="15" height="15" transform="rotate(0,165.5,270.5)"/><rect x="158" y="278" width="15" height="15" transform="rotate(0,165.5,285.5)"/><rect x="158" y="308" width="15" height="15" transform="rotate(0,165.5,315.5)"/><rect x="158" y="323" width="15" height="15" transform="rotate(0,165.5,330.5)"/><rect x="158" y="338" width="15" height="15" transform="rotate(0,165.5,345.5)"/><rect x="158" y="353" width="15" height="15" transform="rotate(0,165.5,360.5)"/><rect x="158" y="383" width="15" height="15" transform="rotate(0,165.5,390.5)"/><rect x="158" y="398" width="15" height="15" transform="rotate(0,165.5,405.5)"/><rect x="158" y="428" width="15" height="15" transform="rotate(0,165.5,435.5)"/><rect x="173" y="53" width="15" height="15" transform="rotate(0,180.5,60.5)"/><rect x="173" y="83" width="15" height="15" transform="rotate(0,180.5,90.5)"/><rect x="173" y="98" width="15" height="15" transform="rotate(0,180.5,105.5)"/><rect x="173" y="143" width="15" height="15" transform="rotate(0,180.5,150.5)"/><rect x="173" y="158" width="15" height="15" transform="rotate(0,180.5,165.5)"/><rect x="173" y="173" width="15" height="15" transform="rotate(0,180.5,180.5)"/><rect x="173" y="188" width="15" height="15" transform="rotate(0,180.5,195.5)"/><rect x="173" y="203" width="15" height="15" transform="rotate(0,180.5,210.5)"/><rect x="173" y="248" width="15" height="15" transform="rotate(0,180.5,255.5)"/><rect x="173" y="263" width="15" height="15" transform="rotate(0,180.5,270.5)"/><rect x="173" y="293" width="15" height="15" transform="rotate(0,180.5,300.5)"/><rect x="173" y="323" width="15" height="15" transform="rotate(0,180.5,330.5)"/><rect x="173" y="338" width="15" height="15" transform="rotate(0,180.5,345.5)"/><rect x="173" y="383" width="15" height="15" transform="rotate(0,180.5,390.5)"/><rect x="173" y="398" width="15" height="15" transform="rotate(0,180.5,405.5)"/><rect x="173" y="428" width="15" height="15" transform="rotate(0,180.5,435.5)"/><rect x="173" y="443" width="15" height="15" transform="rotate(0,180.5,450.5)"/><rect x="173" y="458" width="15" height="15" transform="rotate(0,180.5,465.5)"/><rect x="188" y="38" width="15" height="15" transform="rotate(0,195.5,45.5)"/><rect x="188" y="128" width="15" height="15" transform="rotate(0,195.5,135.5)"/><rect x="188" y="203" width="15" height="15" transform="rotate(0,195.5,210.5)"/><rect x="188" y="233" width="15" height="15" transform="rotate(0,195.5,240.5)"/><rect x="188" y="248" width="15" height="15" transform="rotate(0,195.5,255.5)"/><rect x="188" y="293" width="15" height="15" transform="rotate(0,195.5,300.5)"/><rect x="188" y="353" width="15" height="15" transform="rotate(0,195.5,360.5)"/><rect x="188" y="398" width="15" height="15" transform="rotate(0,195.5,405.5)"/><rect x="188" y="428" width="15" height="15" transform="rotate(0,195.5,435.5)"/><rect x="188" y="458" width="15" height="15" transform="rotate(0,195.5,465.5)"/><rect x="203" y="38" width="15" height="15" transform="rotate(0,210.5,45.5)"/><rect x="203" y="53" width="15" height="15" transform="rotate(0,210.5,60.5)"/><rect x="203" y="68" width="15" height="15" transform="rotate(0,210.5,75.5)"/><rect x="203" y="83" width="15" height="15" transform="rotate(0,210.5,90.5)"/><rect x="203" y="173" width="15" height="15" transform="rotate(0,210.5,180.5)"/><rect x="203" y="188" width="15" height="15" transform="rotate(0,210.5,195.5)"/><rect x="203" y="203" width="15" height="15" transform="rotate(0,210.5,210.5)"/><rect x="203" y="218" width="15" height="15" transform="rotate(0,210.5,225.5)"/><rect x="203" y="233" width="15" height="15" transform="rotate(0,210.5,240.5)"/><rect x="203" y="263" width="15" height="15" transform="rotate(0,210.5,270.5)"/><rect x="203" y="293" width="15" height="15" transform="rotate(0,210.5,300.5)"/><rect x="203" y="308" width="15" height="15" transform="rotate(0,210.5,315.5)"/><rect x="203" y="323" width="15" height="15" transform="rotate(0,210.5,330.5)"/><rect x="203" y="353" width="15" height="15" transform="rotate(0,210.5,360.5)"/><rect x="203" y="413" width="15" height="15" transform="rotate(0,210.5,420.5)"/><rect x="203" y="443" width="15" height="15" transform="rotate(0,210.5,450.5)"/><rect x="203" y="458" width="15" height="15" transform="rotate(0,210.5,465.5)"/><rect x="218" y="53" width="15" height="15" transform="rotate(0,225.5,60.5)"/><rect x="218" y="98" width="15" height="15" transform="rotate(0,225.5,105.5)"/><rect x="218" y="128" width="15" height="15" transform="rotate(0,225.5,135.5)"/><rect x="218" y="158" width="15" height="15" transform="rotate(0,225.5,165.5)"/><rect x="218" y="203" width="15" height="15" transform="rotate(0,225.5,210.5)"/><rect x="218" y="233" width="15" height="15" transform="rotate(0,225.5,240.5)"/><rect x="218" y="263" width="15" height="15" transform="rotate(0,225.5,270.5)"/><rect x="218" y="278" width="15" height="15" transform="rotate(0,225.5,285.5)"/><rect x="218" y="293" width="15" height="15" transform="rotate(0,225.5,300.5)"/><rect x="218" y="308" width="15" height="15" transform="rotate(0,225.5,315.5)"/><rect x="218" y="323" width="15" height="15" transform="rotate(0,225.5,330.5)"/><rect x="218" y="383" width="15" height="15" transform="rotate(0,225.5,390.5)"/><rect x="218" y="428" width="15" height="15" transform="rotate(0,225.5,435.5)"/><rect x="218" y="458" width="15" height="15" transform="rotate(0,225.5,465.5)"/><rect x="233" y="68" width="15" height="15" transform="rotate(0,240.5,75.5)"/><rect x="233" y="113" width="15" height="15" transform="rotate(0,240.5,120.5)"/><rect x="233" y="143" width="15" height="15" transform="rotate(0,240.5,150.5)"/><rect x="233" y="158" width="15" height="15" transform="rotate(0,240.5,165.5)"/><rect x="233" y="173" width="15" height="15" transform="rotate(0,240.5,180.5)"/><rect x="233" y="203" width="15" height="15" transform="rotate(0,240.5,210.5)"/><rect x="233" y="233" width="15" height="15" transform="rotate(0,240.5,240.5)"/><rect x="233" y="263" width="15" height="15" transform="rotate(0,240.5,270.5)"/><rect x="233" y="293" width="15" height="15" transform="rotate(0,240.5,300.5)"/><rect x="233" y="308" width="15" height="15" transform="rotate(0,240.5,315.5)"/><rect x="233" y="368" width="15" height="15" transform="rotate(0,240.5,375.5)"/><rect x="233" y="398" width="15" height="15" transform="rotate(0,240.5,405.5)"/><rect x="233" y="428" width="15" height="15" transform="rotate(0,240.5,435.5)"/><rect x="248" y="83" width="15" height="15" transform="rotate(0,255.5,90.5)"/><rect x="248" y="98" width="15" height="15" transform="rotate(0,255.5,105.5)"/><rect x="248" y="128" width="15" height="15" transform="rotate(0,255.5,135.5)"/><rect x="248" y="143" width="15" height="15" transform="rotate(0,255.5,150.5)"/><rect x="248" y="173" width="15" height="15" transform="rotate(0,255.5,180.5)"/><rect x="248" y="203" width="15" height="15" transform="rotate(0,255.5,210.5)"/><rect x="248" y="248" width="15" height="15" transform="rotate(0,255.5,255.5)"/><rect x="248" y="278" width="15" height="15" transform="rotate(0,255.5,285.5)"/><rect x="248" y="308" width="15" height="15" transform="rotate(0,255.5,315.5)"/><rect x="248" y="338" width="15" height="15" transform="rotate(0,255.5,345.5)"/><rect x="248" y="353" width="15" height="15" transform="rotate(0,255.5,360.5)"/><rect x="248" y="368" width="15" height="15" transform="rotate(0,255.5,375.5)"/><rect x="248" y="398" width="15" height="15" transform="rotate(0,255.5,405.5)"/><rect x="248" y="458" width="15" height="15" transform="rotate(0,255.5,465.5)"/><rect x="263" y="38" width="15" height="15" transform="rotate(0,270.5,45.5)"/><rect x="263" y="143" width="15" height="15" transform="rotate(0,270.5,150.5)"/><rect x="263" y="173" width="15" height="15" transform="rotate(0,270.5,180.5)"/><rect x="263" y="203" width="15" height="15" transform="rotate(0,270.5,210.5)"/><rect x="263" y="218" width="15" height="15" transform="rotate(0,270.5,225.5)"/><rect x="263" y="233" width="15" height="15" transform="rotate(0,270.5,240.5)"/><rect x="263" y="248" width="15" height="15" transform="rotate(0,270.5,255.5)"/><rect x="263" y="368" width="15" height="15" transform="rotate(0,270.5,375.5)"/><rect x="263" y="383" width="15" height="15" transform="rotate(0,270.5,390.5)"/><rect x="263" y="413" width="15" height="15" transform="rotate(0,270.5,420.5)"/><rect x="263" y="443" width="15" height="15" transform="rotate(0,270.5,450.5)"/><rect x="263" y="458" width="15" height="15" transform="rotate(0,270.5,465.5)"/><rect x="278" y="68" width="15" height="15" transform="rotate(0,285.5,75.5)"/><rect x="278" y="83" width="15" height="15" transform="rotate(0,285.5,90.5)"/><rect x="278" y="128" width="15" height="15" transform="rotate(0,285.5,135.5)"/><rect x="278" y="143" width="15" height="15" transform="rotate(0,285.5,150.5)"/><rect x="278" y="188" width="15" height="15" transform="rotate(0,285.5,195.5)"/><rect x="278" y="203" width="15" height="15" transform="rotate(0,285.5,210.5)"/><rect x="278" y="218" width="15" height="15" transform="rotate(0,285.5,225.5)"/><rect x="278" y="278" width="15" height="15" transform="rotate(0,285.5,285.5)"/><rect x="278" y="323" width="15" height="15" transform="rotate(0,285.5,330.5)"/><rect x="278" y="353" width="15" height="15" transform="rotate(0,285.5,360.5)"/><rect x="278" y="443" width="15" height="15" transform="rotate(0,285.5,450.5)"/><rect x="293" y="38" width="15" height="15" transform="rotate(0,300.5,45.5)"/><rect x="293" y="83" width="15" height="15" transform="rotate(0,300.5,90.5)"/><rect x="293" y="113" width="15" height="15" transform="rotate(0,300.5,120.5)"/><rect x="293" y="143" width="15" height="15" transform="rotate(0,300.5,150.5)"/><rect x="293" y="188" width="15" height="15" transform="rotate(0,300.5,195.5)"/><rect x="293" y="218" width="15" height="15" transform="rotate(0,300.5,225.5)"/><rect x="293" y="248" width="15" height="15" transform="rotate(0,300.5,255.5)"/><rect x="293" y="293" width="15" height="15" transform="rotate(0,300.5,300.5)"/><rect x="293" y="308" width="15" height="15" transform="rotate(0,300.5,315.5)"/><rect x="293" y="338" width="15" height="15" transform="rotate(0,300.5,345.5)"/><rect x="293" y="353" width="15" height="15" transform="rotate(0,300.5,360.5)"/><rect x="293" y="383" width="15" height="15" transform="rotate(0,300.5,390.5)"/><rect x="293" y="398" width="15" height="15" transform="rotate(0,300.5,405.5)"/><rect x="293" y="413" width="15" height="15" transform="rotate(0,300.5,420.5)"/><rect x="293" y="428" width="15" height="15" transform="rotate(0,300.5,435.5)"/><rect x="293" y="458" width="15" height="15" transform="rotate(0,300.5,465.5)"/><rect x="308" y="83" width="15" height="15" transform="rotate(0,315.5,90.5)"/><rect x="308" y="98" width="15" height="15" transform="rotate(0,315.5,105.5)"/><rect x="308" y="113" width="15" height="15" transform="rotate(0,315.5,120.5)"/><rect x="308" y="128" width="15" height="15" transform="rotate(0,315.5,135.5)"/><rect x="308" y="173" width="15" height="15" transform="rotate(0,315.5,180.5)"/><rect x="308" y="203" width="15" height="15" transform="rotate(0,315.5,210.5)"/><rect x="308" y="218" width="15" height="15" transform="rotate(0,315.5,225.5)"/><rect x="308" y="233" width="15" height="15" transform="rotate(0,315.5,240.5)"/><rect x="308" y="248" width="15" height="15" transform="rotate(0,315.5,255.5)"/><rect x="308" y="263" width="15" height="15" transform="rotate(0,315.5,270.5)"/><rect x="308" y="308" width="15" height="15" transform="rotate(0,315.5,315.5)"/><rect x="308" y="383" width="15" height="15" transform="rotate(0,315.5,390.5)"/><rect x="308" y="413" width="15" height="15" transform="rotate(0,315.5,420.5)"/><rect x="308" y="428" width="15" height="15" transform="rotate(0,315.5,435.5)"/><rect x="308" y="458" width="15" height="15" transform="rotate(0,315.5,465.5)"/><rect x="323" y="68" width="15" height="15" transform="rotate(0,330.5,75.5)"/><rect x="323" y="98" width="15" height="15" transform="rotate(0,330.5,105.5)"/><rect x="323" y="188" width="15" height="15" transform="rotate(0,330.5,195.5)"/><rect x="323" y="203" width="15" height="15" transform="rotate(0,330.5,210.5)"/><rect x="323" y="218" width="15" height="15" transform="rotate(0,330.5,225.5)"/><rect x="323" y="233" width="15" height="15" transform="rotate(0,330.5,240.5)"/><rect x="323" y="248" width="15" height="15" transform="rotate(0,330.5,255.5)"/><rect x="323" y="263" width="15" height="15" transform="rotate(0,330.5,270.5)"/><rect x="323" y="278" width="15" height="15" transform="rotate(0,330.5,285.5)"/><rect x="323" y="293" width="15" height="15" transform="rotate(0,330.5,300.5)"/><rect x="323" y="323" width="15" height="15" transform="rotate(0,330.5,330.5)"/><rect x="323" y="383" width="15" height="15" transform="rotate(0,330.5,390.5)"/><rect x="323" y="398" width="15" height="15" transform="rotate(0,330.5,405.5)"/><rect x="323" y="443" width="15" height="15" transform="rotate(0,330.5,450.5)"/><rect x="338" y="38" width="15" height="15" transform="rotate(0,345.5,45.5)"/><rect x="338" y="53" width="15" height="15" transform="rotate(0,345.5,60.5)"/><rect x="338" y="98" width="15" height="15" transform="rotate(0,345.5,105.5)"/><rect x="338" y="128" width="15" height="15" transform="rotate(0,345.5,135.5)"/><rect x="338" y="143" width="15" height="15" transform="rotate(0,345.5,150.5)"/><rect x="338" y="158" width="15" height="15" transform="rotate(0,345.5,165.5)"/><rect x="338" y="218" width="15" height="15" transform="rotate(0,345.5,225.5)"/><rect x="338" y="233" width="15" height="15" transform="rotate(0,345.5,240.5)"/><rect x="338" y="293" width="15" height="15" transform="rotate(0,345.5,300.5)"/><rect x="338" y="338" width="15" height="15" transform="rotate(0,345.5,345.5)"/><rect x="338" y="353" width="15" height="15" transform="rotate(0,345.5,360.5)"/><rect x="338" y="368" width="15" height="15" transform="rotate(0,345.5,375.5)"/><rect x="338" y="383" width="15" height="15" transform="rotate(0,345.5,390.5)"/><rect x="338" y="398" width="15" height="15" transform="rotate(0,345.5,405.5)"/><rect x="338" y="458" width="15" height="15" transform="rotate(0,345.5,465.5)"/><rect x="353" y="158" width="15" height="15" transform="rotate(0,360.5,165.5)"/><rect x="353" y="173" width="15" height="15" transform="rotate(0,360.5,180.5)"/><rect x="353" y="203" width="15" height="15" transform="rotate(0,360.5,210.5)"/><rect x="353" y="263" width="15" height="15" transform="rotate(0,360.5,270.5)"/><rect x="353" y="308" width="15" height="15" transform="rotate(0,360.5,315.5)"/><rect x="353" y="338" width="15" height="15" transform="rotate(0,360.5,345.5)"/><rect x="353" y="398" width="15" height="15" transform="rotate(0,360.5,405.5)"/><rect x="353" y="428" width="15" height="15" transform="rotate(0,360.5,435.5)"/><rect x="368" y="173" width="15" height="15" transform="rotate(0,375.5,180.5)"/><rect x="368" y="203" width="15" height="15" transform="rotate(0,375.5,210.5)"/><rect x="368" y="218" width="15" height="15" transform="rotate(0,375.5,225.5)"/><rect x="368" y="233" width="15" height="15" transform="rotate(0,375.5,240.5)"/><rect x="368" y="248" width="15" height="15" transform="rotate(0,375.5,255.5)"/><rect x="368" y="263" width="15" height="15" transform="rotate(0,375.5,270.5)"/><rect x="368" y="293" width="15" height="15" transform="rotate(0,375.5,300.5)"/><rect x="368" y="323" width="15" height="15" transform="rotate(0,375.5,330.5)"/><rect x="368" y="338" width="15" height="15" transform="rotate(0,375.5,345.5)"/><rect x="368" y="368" width="15" height="15" transform="rotate(0,375.5,375.5)"/><rect x="368" y="398" width="15" height="15" transform="rotate(0,375.5,405.5)"/><rect x="368" y="458" width="15" height="15" transform="rotate(0,375.5,465.5)"/><rect x="383" y="173" width="15" height="15" transform="rotate(0,390.5,180.5)"/><rect x="383" y="248" width="15" height="15" transform="rotate(0,390.5,255.5)"/><rect x="383" y="293" width="15" height="15" transform="rotate(0,390.5,300.5)"/><rect x="383" y="308" width="15" height="15" transform="rotate(0,390.5,315.5)"/><rect x="383" y="323" width="15" height="15" transform="rotate(0,390.5,330.5)"/><rect x="383" y="338" width="15" height="15" transform="rotate(0,390.5,345.5)"/><rect x="383" y="398" width="15" height="15" transform="rotate(0,390.5,405.5)"/><rect x="383" y="413" width="15" height="15" transform="rotate(0,390.5,420.5)"/><rect x="398" y="158" width="15" height="15" transform="rotate(0,405.5,165.5)"/><rect x="398" y="173" width="15" height="15" transform="rotate(0,405.5,180.5)"/><rect x="398" y="203" width="15" height="15" transform="rotate(0,405.5,210.5)"/><rect x="398" y="218" width="15" height="15" transform="rotate(0,405.5,225.5)"/><rect x="398" y="263" width="15" height="15" transform="rotate(0,405.5,270.5)"/><rect x="398" y="308" width="15" height="15" transform="rotate(0,405.5,315.5)"/><rect x="398" y="323" width="15" height="15" transform="rotate(0,405.5,330.5)"/><rect x="398" y="338" width="15" height="15" transform="rotate(0,405.5,345.5)"/><rect x="398" y="353" width="15" height="15" transform="rotate(0,405.5,360.5)"/><rect x="398" y="368" width="15" height="15" transform="rotate(0,405.5,375.5)"/><rect x="398" y="383" width="15" height="15" transform="rotate(0,405.5,390.5)"/><rect x="398" y="398" width="15" height="15" transform="rotate(0,405.5,405.5)"/><rect x="398" y="443" width="15" height="15" transform="rotate(0,405.5,450.5)"/><rect x="398" y="458" width="15" height="15" transform="rotate(0,405.5,465.5)"/><rect x="413" y="188" width="15" height="15" transform="rotate(0,420.5,195.5)"/><rect x="413" y="218" width="15" height="15" transform="rotate(0,420.5,225.5)"/><rect x="413" y="248" width="15" height="15" transform="rotate(0,420.5,255.5)"/><rect x="413" y="278" width="15" height="15" transform="rotate(0,420.5,285.5)"/><rect x="413" y="293" width="15" height="15" transform="rotate(0,420.5,300.5)"/><rect x="413" y="383" width="15" height="15" transform="rotate(0,420.5,390.5)"/><rect x="413" y="428" width="15" height="15" transform="rotate(0,420.5,435.5)"/><rect x="413" y="443" width="15" height="15" transform="rotate(0,420.5,450.5)"/><rect x="428" y="203" width="15" height="15" transform="rotate(0,435.5,210.5)"/><rect x="428" y="233" width="15" height="15" transform="rotate(0,435.5,240.5)"/><rect x="428" y="248" width="15" height="15" transform="rotate(0,435.5,255.5)"/><rect x="428" y="278" width="15" height="15" transform="rotate(0,435.5,285.5)"/><rect x="428" y="293" width="15" height="15" transform="rotate(0,435.5,300.5)"/><rect x="428" y="323" width="15" height="15" transform="rotate(0,435.5,330.5)"/><rect x="428" y="338" width="15" height="15" transform="rotate(0,435.5,345.5)"/><rect x="428" y="353" width="15" height="15" transform="rotate(0,435.5,360.5)"/><rect x="428" y="413" width="15" height="15" transform="rotate(0,435.5,420.5)"/><rect x="428" y="428" width="15" height="15" transform="rotate(0,435.5,435.5)"/><rect x="428" y="443" width="15" height="15" transform="rotate(0,435.5,450.5)"/><rect x="428" y="458" width="15" height="15" transform="rotate(0,435.5,465.5)"/><rect x="443" y="158" width="15" height="15" transform="rotate(0,450.5,165.5)"/><rect x="443" y="173" width="15" height="15" transform="rotate(0,450.5,180.5)"/><rect x="443" y="248" width="15" height="15" transform="rotate(0,450.5,255.5)"/><rect x="443" y="293" width="15" height="15" transform="rotate(0,450.5,300.5)"/><rect x="443" y="308" width="15" height="15" transform="rotate(0,450.5,315.5)"/><rect x="443" y="323" width="15" height="15" transform="rotate(0,450.5,330.5)"/><rect x="443" y="338" width="15" height="15" transform="rotate(0,450.5,345.5)"/><rect x="443" y="368" width="15" height="15" transform="rotate(0,450.5,375.5)"/><rect x="443" y="383" width="15" height="15" transform="rotate(0,450.5,390.5)"/><rect x="443" y="413" width="15" height="15" transform="rotate(0,450.5,420.5)"/><rect x="443" y="443" width="15" height="15" transform="rotate(0,450.5,450.5)"/><rect x="443" y="458" width="15" height="15" transform="rotate(0,450.5,465.5)"/><rect x="458" y="173" width="15" height="15" transform="rotate(0,465.5,180.5)"/><rect x="458" y="203" width="15" height="15" transform="rotate(0,465.5,210.5)"/><rect x="458" y="248" width="15" height="15" transform="rotate(0,465.5,255.5)"/><rect x="458" y="263" width="15" height="15" transform="rotate(0,465.5,270.5)"/><rect x="458" y="293" width="15" height="15" transform="rotate(0,465.5,300.5)"/><rect x="458" y="338" width="15" height="15" transform="rotate(0,465.5,345.5)"/><rect x="458" y="353" width="15" height="15" transform="rotate(0,465.5,360.5)"/><rect x="458" y="368" width="15" height="15" transform="rotate(0,465.5,375.5)"/><rect x="458" y="398" width="15" height="15" transform="rotate(0,465.5,405.5)"/><rect x="458" y="428" width="15" height="15" transform="rotate(0,465.5,435.5)"/><rect x="458" y="443" width="15" height="15" transform="rotate(0,465.5,450.5)"/></clipPath><clipPath id="clip-path-corners-square-color-0-0"><rect x="38" y="38" width="15" height="15" transform="rotate(0,45.5,45.5)"/><rect x="38" y="53" width="15" height="15" transform="rotate(0,45.5,60.5)"/><rect x="38" y="68" width="15" height="15" transform="rotate(0,45.5,75.5)"/><rect x="38" y="83" width="15" height="15" transform="rotate(0,45.5,90.5)"/><rect x="38" y="98" width="15" height="15" transform="rotate(0,45.5,105.5)"/><rect x="38" y="113" width="15" height="15" transform="rotate(0,45.5,120.5)"/><rect x="38" y="128" width="15" height="15" transform="rotate(0,45.5,135.5)"/><rect x="53" y="38" width="15" height="15" transform="rotate(0,60.5,45.5)"/><rect x="53" y="128" width="15" height="15" transform="rotate(0,60.5,135.5)"/><rect x="68" y="38" width="15" height="15" transform="rotate(0,75.5,45.5)"/><rect x="68" y="128" width="15" height="15" transform="rotate(0,75.5,135.5)"/><rect x="83" y="38" width="15" height="15" transform="rotate(0,90.5,45.5)"/><rect x="83" y="128" width="15" height="15" transform="rotate(0,90.5,135.5)"/><rect x="98" y="38" width="15" height="15" transform="rotate(0,105.5,45.5)"/><rect x="98" y="128" width="15" height="15" transform="rotate(0,105.5,135.5)"/><rect x="113" y="38" width="15" height="15" transform="rotate(0,120.5,45.5)"/><rect x="113" y="128" width="15" height="15" transform="rotate(0,120.5,135.5)"/><rect x="128" y="38" width="15" height="15" transform="rotate(0,135.5,45.5)"/><rect x="128" y="53" width="15" height="15" transform="rotate(0,135.5,60.5)"/><rect x="128" y="68" width="15" height="15" transform="rotate(0,135.5,75.5)"/><rect x="128" y="83" width="15" height="15" transform="rotate(0,135.5,90.5)"/><rect x="128" y="98" width="15" height="15" transform="rotate(0,135.5,105.5)"/><rect x="128" y="113" width="15" height="15" transform="rotate(0,135.5,120.5)"/><rect x="128" y="128" width="15" height="15" transform="rotate(0,135.5,135.5)"/></clipPath><clipPath id="clip-path-corners-dot-color-0-0"><rect x="68" y="68" width="15" height="15" transform="rotate(0,75.5,75.5)"/><rect x="68" y="83" width="15" height="15" transform="rotate(0,75.5,90.5)"/><rect x="68" y="98" width="15" height="15" transform="rotate(0,75.5,105.5)"/><rect x="83" y="68" width="15" height="15" transform="rotate(0,90.5,75.5)"/><rect x="83" y="83" width="15" height="15" transform="rotate(0,90.5,90.5)"/><rect x="83" y="98" width="15" height="15" transform="rotate(0,90.5,105.5)"/><rect x="98" y="68" width="15" height="15" transform="rotate(0,105.5,75.5)"/><rect x="98" y="83" width="15" height="15" transform="rotate(0,105.5,90.5)"/><rect x="98" y="98" width="15" height="15" transform="rotate(0,105.5,105.5)"/></clipPath><clipPath id="clip-path-corners-square-color-1-0"><rect x="368" y="38" width="15" height="15" transform="rotate(0,375.5,45.5)"/><rect x="368" y="53" width="15" height="15" transform="rotate(0,375.5,60.5)"/><rect x="368" y="68" width="15" height="15" transform="rotate(0,375.5,75.5)"/><rect x="368" y="83" width="15" height="15" transform="rotate(0,375.5,90.5)"/><rect x="368" y="98" width="15" height="15" transform="rotate(0,375.5,105.5)"/><rect x="368" y="113" width="15" height="15" transform="rotate(0,375.5,120.5)"/><rect x="368" y="128" width="15" height="15" transform="rotate(0,375.5,135.5)"/><rect x="383" y="38" width="15" height="15" transform="rotate(0,390.5,45.5)"/><rect x="383" y="128" width="15" height="15" transform="rotate(0,390.5,135.5)"/><rect x="398" y="38" width="15" height="15" transform="rotate(0,405.5,45.5)"/><rect x="398" y="128" width="15" height="15" transform="rotate(0,405.5,135.5)"/><rect x="413" y="38" width="15" height="15" transform="rotate(0,420.5,45.5)"/><rect x="413" y="128" width="15" height="15" transform="rotate(0,420.5,135.5)"/><rect x="428" y="38" width="15" height="15" transform="rotate(0,435.5,45.5)"/><rect x="428" y="128" width="15" height="15" transform="rotate(0,435.5,135.5)"/><rect x="443" y="38" width="15" height="15" transform="rotate(0,450.5,45.5)"/><rect x="443" y="128" width="15" height="15" transform="rotate(0,450.5,135.5)"/><rect x="458" y="38" width="15" height="15" transform="rotate(0,465.5,45.5)"/><rect x="458" y="53" width="15" height="15" transform="rotate(0,465.5,60.5)"/><rect x="458" y="68" width="15" height="15" transform="rotate(0,465.5,75.5)"/><rect x="458" y="83" width="15" height="15" transform="rotate(0,465.5,90.5)"/><rect x="458" y="98" width="15" height="15" transform="rotate(0,465.5,105.5)"/><rect x="458" y="113" width="15" height="15" transform="rotate(0,465.5,120.5)"/><rect x="458" y="128" width="15" height="15" transform="rotate(0,465.5,135.5)"/></clipPath><clipPath id="clip-path-corners-dot-color-1-0"><rect x="398" y="68" width="15" height="15" transform="rotate(0,405.5,75.5)"/><rect x="398" y="83" width="15" height="15" transform="rotate(0,405.5,90.5)"/><rect x="398" y="98" width="15" height="15" transform="rotate(0,405.5,105.5)"/><rect x="413" y="68" width="15" height="15" transform="rotate(0,420.5,75.5)"/><rect x="413" y="83" width="15" height="15" transform="rotate(0,420.5,90.5)"/><rect x="413" y="98" width="15" height="15" transform="rotate(0,420.5,105.5)"/><rect x="428" y="68" width="15" height="15" transform="rotate(0,435.5,75.5)"/><rect x="428" y="83" width="15" height="15" transform="rotate(0,435.5,90.5)"/><rect x="428" y="98" width="15" height="15" transform="rotate(0,435.5,105.5)"/></clipPath><clipPath id="clip-path-corners-square-color-0-1"><rect x="38" y="368" width="15" height="15" transform="rotate(0,45.5,375.5)"/><rect x="38" y="383" width="15" height="15" transform="rotate(0,45.5,390.5)"/><rect x="38" y="398" width="15" height="15" transform="rotate(0,45.5,405.5)"/><rect x="38" y="413" width="15" height="15" transform="rotate(0,45.5,420.5)"/><rect x="38" y="428" width="15" height="15" transform="rotate(0,45.5,435.5)"/><rect x="38" y="443" width="15" height="15" transform="rotate(0,45.5,450.5)"/><rect x="38" y="458" width="15" height="15" transform="rotate(0,45.5,465.5)"/><rect x="53" y="368" width="15" height="15" transform="rotate(0,60.5,375.5)"/><rect x="53" y="458" width="15" height="15" transform="rotate(0,60.5,465.5)"/><rect x="68" y="368" width="15" height="15" transform="rotate(0,75.5,375.5)"/><rect x="68" y="458" width="15" height="15" transform="rotate(0,75.5,465.5)"/><rect x="83" y="368" width="15" height="15" transform="rotate(0,90.5,375.5)"/><rect x="83" y="458" width="15" height="15" transform="rotate(0,90.5,465.5)"/><rect x="98" y="368" width="15" height="15" transform="rotate(0,105.5,375.5)"/><rect x="98" y="458" width="15" height="15" transform="rotate(0,105.5,465.5)"/><rect x="113" y="368" width="15" height="15" transform="rotate(0,120.5,375.5)"/><rect x="113" y="458" width="15" height="15" transform="rotate(0,120.5,465.5)"/><rect x="128" y="368" width="15" height="15" transform="rotate(0,135.5,375.5)"/><rect x="128" y="383" width="15" height="15" transform="rotate(0,135.5,390.5)"/><rect x="128" y="398" width="15" height="15" transform="rotate(0,135.5,405.5)"/><rect x="128" y="413" width="15" height="15" transform="rotate(0,135.5,420.5)"/><rect x="128" y="428" width="15" height="15" transform="rotate(0,135.5,435.5)"/><rect x="128" y="443" width="15" height="15" transform="rotate(0,135.5,450.5)"/><rect x="128" y="458" width="15" height="15" transform="rotate(0,135.5,465.5)"/></clipPath><clipPath id="clip-path-corners-dot-color-0-1"><rect x="68" y="398" width="15" height="15" transform="rotate(0,75.5,405.5)"/><rect x="68" y="413" width="15" height="15" transform="rotate(0,75.5,420.5)"/><rect x="68" y="428" width="15" height="15" transform="rotate(0,75.5,435.5)"/><rect x="83" y="398" width="15" height="15" transform="rotate(0,90.5,405.5)"/><rect x="83" y="413" width="15" height="15" transform="rotate(0,90.5,420.5)"/><rect x="83" y="428" width="15" height="15" transform="rotate(0,90.5,435.5)"/><rect x="98" y="398" width="15" height="15" transform="rotate(0,105.5,405.5)"/><rect x="98" y="413" width="15" height="15" transform="rotate(0,105.5,420.5)"/><rect x="98" y="428" width="15" height="15" transform="rotate(0,105.5,435.5)"/></clipPath></defs><rect x="0" y="0" height="512" width="512" clip-path="url('#clip-path-background-color')" fill="#ffffff"/><rect x="38" y="38" height="435" width="435" clip-path="url('#clip-path-dot-color')" fill="#000000"/><rect x="38" y="38" height="105" width="105" clip-path="url('#clip-path-corners-square-color-0-0')" fill="#000000"/><rect x="68" y="68" height="45" width="45" clip-path="url('#clip-path-corners-dot-color-0-0')" fill="#000000"/><rect x="368" y="38" height="105" width="105" clip-path="url('#clip-path-corners-square-color-1-0')" fill="#000000"/><rect x="398" y="68" height="45" width="45" clip-path="url('#clip-path-corners-dot-color-1-0')" fill="#000000"/><rect x="38" y="368" height="105" width="105" clip-path="url('#clip-path-corners-square-color-0-1')" fill="#000000"/><rect x="68" y="398" height="45" width="45" clip-path="url('#clip-path-corners-dot-color-0-1')" fill="#000000"/></svg>